<svg xmlns="http://www.w3.org/2000/svg" version="1.1" xmlns:xlink="http://www.w3.org/1999/xlink" xmlns:svgjs="http://svgjs.com/svgjs" width="1440" height="560" preserveAspectRatio="none" viewBox="0 0 1440 560"><g mask="url(&quot;#SvgjsMask1021&quot;)" fill="none"><path d="M219 277L218 544" stroke-width="10" stroke="url(#SvgjsLinearGradient1022)" stroke-linecap="round" class="Up"></path><path d="M1047 363L1046 534" stroke-width="10" stroke="url(#SvgjsLinearGradient1023)" stroke-linecap="round" class="Up"></path><path d="M971 478L970 892" stroke-width="10" stroke="url(#SvgjsLinearGradient1022)" stroke-linecap="round" class="Up"></path><path d="M217 549L216 188" stroke-width="10" stroke="url(#SvgjsLinearGradient1024)" stroke-linecap="round" class="Down"></path><path d="M98 156L97 448" stroke-width="10" stroke="url(#SvgjsLinearGradient1025)" stroke-linecap="round" class="Down"></path><path d="M20 237L19 14" stroke-width="8" stroke="url(#SvgjsLinearGradient1023)" stroke-linecap="round" class="Up"></path><path d="M385 56L384 -119" stroke-width="6" stroke="url(#SvgjsLinearGradient1024)" stroke-linecap="round" class="Down"></path><path d="M356 296L355 -49" stroke-width="6" stroke="url(#SvgjsLinearGradient1025)" stroke-linecap="round" class="Down"></path><path d="M505 459L504 312" stroke-width="8" stroke="url(#SvgjsLinearGradient1024)" stroke-linecap="round" class="Down"></path><path d="M1435 82L1434 280" stroke-width="10" stroke="url(#SvgjsLinearGradient1023)" stroke-linecap="round" class="Up"></path><path d="M357 144L356 327" stroke-width="6" stroke="url(#SvgjsLinearGradient1022)" stroke-linecap="round" class="Up"></path><path d="M860 246L859 -125" stroke-width="8" stroke="url(#SvgjsLinearGradient1025)" stroke-linecap="round" class="Down"></path><path d="M516 514L515 369" stroke-width="6" stroke="url(#SvgjsLinearGradient1023)" stroke-linecap="round" class="Up"></path><path d="M1372 399L1371 105" stroke-width="6" stroke="url(#SvgjsLinearGradient1022)" stroke-linecap="round" class="Up"></path><path d="M346 202L345 600" stroke-width="8" stroke="url(#SvgjsLinearGradient1023)" stroke-linecap="round" class="Up"></path><path d="M393 203L392 -207" stroke-width="6" stroke="url(#SvgjsLinearGradient1025)" stroke-linecap="round" class="Down"></path><path d="M295 318L294 612" stroke-width="6" stroke="url(#SvgjsLinearGradient1024)" stroke-linecap="round" class="Down"></path><path d="M826 286L825 470" stroke-width="10" stroke="url(#SvgjsLinearGradient1022)" stroke-linecap="round" class="Up"></path><path d="M770 387L769 206" stroke-width="8" stroke="url(#SvgjsLinearGradient1022)" stroke-linecap="round" class="Up"></path><path d="M923 2L922 185" stroke-width="6" stroke="url(#SvgjsLinearGradient1023)" stroke-linecap="round" class="Up"></path><path d="M405 302L404 635" stroke-width="8" stroke="url(#SvgjsLinearGradient1023)" stroke-linecap="round" class="Up"></path><path d="M412 419L411 202" stroke-width="6" stroke="url(#SvgjsLinearGradient1024)" stroke-linecap="round" class="Down"></path><path d="M307 192L306 526" stroke-width="6" stroke="url(#SvgjsLinearGradient1024)" stroke-linecap="round" class="Down"></path><path d="M211 121L210 -79" stroke-width="10" stroke="url(#SvgjsLinearGradient1024)" stroke-linecap="round" class="Down"></path><path d="M103 470L102 728" stroke-width="6" stroke="url(#SvgjsLinearGradient1025)" stroke-linecap="round" class="Down"></path><path d="M1265 379L1264 523" stroke-width="10" stroke="url(#SvgjsLinearGradient1022)" stroke-linecap="round" class="Up"></path><path d="M1055 308L1054 -38" stroke-width="6" stroke="url(#SvgjsLinearGradient1022)" stroke-linecap="round" class="Up"></path><path d="M169 542L168 386" stroke-width="10" stroke="url(#SvgjsLinearGradient1025)" stroke-linecap="round" class="Down"></path><path d="M826 220L825 18" stroke-width="10" stroke="url(#SvgjsLinearGradient1022)" stroke-linecap="round" class="Up"></path><path d="M1075 235L1074 -98" stroke-width="8" stroke="url(#SvgjsLinearGradient1023)" stroke-linecap="round" class="Up"></path><path d="M568 430L567 753" stroke-width="6" stroke="url(#SvgjsLinearGradient1024)" stroke-linecap="round" class="Down"></path><path d="M1230 505L1229 793" stroke-width="10" stroke="url(#SvgjsLinearGradient1025)" stroke-linecap="round" class="Down"></path><path d="M1201 371L1200 90" stroke-width="10" stroke="url(#SvgjsLinearGradient1022)" stroke-linecap="round" class="Up"></path><path d="M1241 335L1240 17" stroke-width="10" stroke="url(#SvgjsLinearGradient1025)" stroke-linecap="round" class="Down"></path><path d="M110 454L109 82" stroke-width="10" stroke="url(#SvgjsLinearGradient1022)" stroke-linecap="round" class="Up"></path><path d="M949 541L948 820" stroke-width="6" stroke="url(#SvgjsLinearGradient1022)" stroke-linecap="round" class="Up"></path></g><defs><mask id="SvgjsMask1021"><rect width="1440" height="560" fill="#ffffff"></rect></mask><linearGradient x1="0%" y1="100%" x2="0%" y2="0%" id="SvgjsLinearGradient1022"><stop stop-color="rgba(10, 13, 40, 0)" offset="0"></stop><stop stop-color="rgba(10, 13, 40, 1)" offset="1"></stop></linearGradient><linearGradient x1="0%" y1="100%" x2="0%" y2="0%" id="SvgjsLinearGradient1023"><stop stop-color="rgba(197, 202, 207, 0)" offset="0"></stop><stop stop-color="rgba(197, 202, 207, 1)" offset="1"></stop></linearGradient><linearGradient x1="0%" y1="0%" x2="0%" y2="100%" id="SvgjsLinearGradient1024"><stop stop-color="rgba(10, 13, 40, 0)" offset="0"></stop><stop stop-color="rgba(10, 13, 40, 1)" offset="1"></stop></linearGradient><linearGradient x1="0%" y1="0%" x2="0%" y2="100%" id="SvgjsLinearGradient1025"><stop stop-color="rgba(197, 202, 207, 0)" offset="0"></stop><stop stop-color="rgba(197, 202, 207, 1)" offset="1"></stop></linearGradient></defs></svg>